<?xml version="1.0" encoding="utf-8"?>
<!-- Generator: Adobe Illustrator 18.0.0, SVG Export Plug-In . SVG Version: 6.00 Build 0)  -->
<!DOCTYPE svg PUBLIC "-//W3C//DTD SVG 1.1//EN" "http://www.w3.org/Graphics/SVG/1.1/DTD/svg11.dtd">
<svg version="1.1" id="Layer_1" xmlns="http://www.w3.org/2000/svg" xmlns:xlink="http://www.w3.org/1999/xlink" x="0px" y="0px"
	 viewBox="290.732 379.998 30.549 27" enable-background="new 290.732 379.998 30.549 27" xml:space="preserve">
<path fill="white" d="M304.232,379.998c-7.457,0-13.5,6.043-13.5,13.5s6.043,13.5,13.5,13.5s13.5-6.043,13.5-13.5
	S311.689,379.998,304.232,379.998z M296.837,386.247l0.103-0.104c0.279-0.279,0.731-0.279,1.011,0l3.822,3.825v-1.641
	c0-0.396,0.322-0.715,0.715-0.715h0.146c0.395,0,0.714,0.32,0.714,0.714v3.335c0,0.062-0.01,0.12-0.025,0.179
	c-0.005,0.174-0.074,0.348-0.208,0.482l-0.103,0.102c-0.156,0.158-0.371,0.227-0.576,0.207c-0.021,0.002-0.043,0.004-0.064,0.004
	h-3.331c-0.396,0-0.716-0.318-0.715-0.714v-0.144c0-0.395,0.319-0.715,0.715-0.715h1.598l-3.803-3.806
	C296.558,386.979,296.558,386.526,296.837,386.247z M303.168,395.646l-3.824,3.823h1.641c0.396,0,0.716,0.322,0.716,0.715v0.146
	c0,0.396-0.32,0.716-0.715,0.714l-3.332,0.002c-0.063,0-0.121-0.012-0.181-0.028c-0.174-0.004-0.347-0.072-0.482-0.207l-0.102-0.102
	c-0.157-0.157-0.226-0.372-0.207-0.577c-0.002-0.021-0.005-0.042-0.005-0.065v-3.331c0-0.394,0.32-0.715,0.715-0.715h0.143
	c0.395,0,0.716,0.322,0.716,0.715v1.598l3.803-3.802c0.279-0.278,0.73-0.278,1.01,0.002l0.103,0.102
	C303.447,394.913,303.447,395.366,303.168,395.646z M305.285,391.323l3.823-3.823h-1.64c-0.396,0-0.715-0.322-0.715-0.715v-0.145
	c0-0.395,0.319-0.715,0.714-0.715h3.333c0.064,0,0.121,0.01,0.181,0.026c0.175,0.005,0.347,0.072,0.482,0.207l0.103,0.102
	c0.157,0.158,0.225,0.371,0.206,0.577c0.002,0.021,0.005,0.042,0.005,0.065v3.331c0,0.396-0.32,0.715-0.715,0.715h-0.143
	c-0.395,0-0.715-0.32-0.715-0.715v-1.598l-3.804,3.802c-0.278,0.278-0.73,0.278-1.01,0l-0.103-0.104
	C305.006,392.056,305.006,391.603,305.285,391.323z M311.628,400.761l-0.103,0.104c-0.279,0.279-0.732,0.279-1.012,0l-3.873-3.876
	v1.642c0,0.395-0.321,0.715-0.715,0.715h-0.145c-0.396,0-0.715-0.32-0.715-0.714v-3.335c0-0.062,0.01-0.12,0.025-0.178
	c0.005-0.176,0.074-0.35,0.207-0.483l0.104-0.104c0.156-0.156,0.371-0.225,0.576-0.204c0.021-0.003,0.042-0.007,0.064-0.007h3.332
	c0.395,0,0.715,0.32,0.715,0.715v0.144c0,0.396-0.32,0.716-0.714,0.716h-1.599l3.853,3.853
	C311.908,400.03,311.907,400.483,311.628,400.761z"/>
</svg>
